<svg width="336" height="336" xmlns="http://www.w3.org/2000/svg" xmlns:xlink="http://www.w3.org/1999/xlink" xml:space="preserve" overflow="hidden"><g transform="translate(-104 -194)"><path d="M104.378 511.01C104.378 513.2 104.831 515.503 105.699 517.806 106.68 520.222 108.002 522.298 109.852 524.148 111.702 525.998 113.891 527.433 116.194 528.301 118.497 529.169 120.913 529.622 123.103 529.622L421.048 529.622C423.351 529.622 425.654 529.169 427.919 528.301 430.222 527.433 432.412 525.998 434.262 524.148 436.149 522.298 437.433 520.222 438.414 517.806 439.32 515.503 439.736 513.2 439.736 511.01L439.736 212.952C439.736 210.762 439.32 208.346 438.414 206.081 437.433 203.778 436.149 201.588 434.262 199.852 432.412 197.964 430.222 196.567 427.919 195.661 425.654 194.68 423.351 194.378 421.048 194.378L123.103 194.378C120.913 194.378 118.497 194.68 116.194 195.661 113.891 196.567 111.702 197.964 109.852 199.852 108.002 201.588 106.68 203.778 105.699 206.081 104.831 208.346 104.378 210.762 104.378 212.952L104.378 511.01Z" fill="#FFFFFF"/><path d="M104.378 510.973C104.378 515.918 106.378 520.637 109.889 524.148 113.4 527.622 118.195 529.622 123.141 529.622" stroke="#343434" stroke-width="0.755056" stroke-linejoin="round" fill="none"/><path d="M123.103 529.585 421.01 529.585" stroke="#343434" stroke-width="0.755056" stroke-linejoin="round" fill="none"/><path d="M421.01 529.622C426.031 529.622 430.788 527.622 434.262 524.148 437.773 520.637 439.736 515.918 439.736 510.973" stroke="#343434" stroke-width="0.755056" stroke-linejoin="round" fill="none"/><path d="M439.698 510.973 439.698 212.952" stroke="#343434" stroke-width="0.755056" stroke-linejoin="round" fill="none"/><path d="M439.736 212.99C439.736 208.082 437.773 203.212 434.262 199.852 430.788 196.341 426.031 194.378 421.01 194.378" stroke="#343434" stroke-width="0.755056" stroke-linejoin="round" fill="none"/><path d="M421.01 194.378 123.103 194.378" stroke="#343434" stroke-width="0.755056" stroke-linejoin="round" fill="none"/><path d="M123.141 194.378C118.195 194.378 113.4 196.341 109.889 199.852 106.378 203.212 104.378 208.082 104.378 212.99" stroke="#343434" stroke-width="0.755056" stroke-linejoin="round" fill="none"/><path d="M104.378 212.952 104.378 510.973" stroke="#343434" stroke-width="0.755056" stroke-linejoin="round" fill="none"/><path d="M112.608 511.01C112.608 512.218 112.796 513.54 113.363 514.861 113.891 516.145 114.684 517.353 115.666 518.334 116.76 519.429 117.969 520.222 119.252 520.637 120.46 521.204 121.782 521.392 123.103 521.392L421.048 521.392C422.369 521.392 423.691 521.204 424.974 520.637 426.182 520.222 427.504 519.429 428.485 518.334 429.467 517.353 430.222 516.145 430.788 514.861 431.317 513.54 431.543 512.218 431.543 511.01L431.543 212.952C431.543 211.744 431.317 210.422 430.788 209.139 430.222 207.818 429.467 206.609 428.485 205.628 427.504 204.533 426.182 203.778 424.974 203.212 423.691 202.796 422.369 202.57 421.048 202.57L123.103 202.57C121.782 202.57 120.46 202.796 119.252 203.212 117.969 203.778 116.76 204.533 115.666 205.628 114.684 206.609 113.891 207.818 113.363 209.139 112.796 210.422 112.608 211.744 112.608 212.952L112.608 511.01Z" fill="#0055FF"/><path d="M387.599 333.27C387.599 328.438 387.146 323.53 386.278 318.509 385.296 313.45 383.975 308.429 382.012 303.37 380.049 298.349 377.632 293.516 374.688 288.835 371.743 284.116 368.345 279.737 364.419 275.697 360.606 271.771 356.302 268.147 351.809 264.975 347.204 261.842 342.522 259.199 337.577 257.009 332.669 254.933 327.648 253.31 322.627 252.215 317.681 251.12 312.773 250.44 307.978 250.252 303.146 250.138 298.238 250.327 293.104 251.007 288.083 251.649 282.911 252.857 277.889 254.593 272.868 256.368 267.847 258.557 263.015 261.276 258.22 263.994 253.728 267.278 249.575 271.016 245.422 274.716 241.609 278.755 238.324 283.134 234.927 287.627 232.095 292.233 229.792 297.027 227.489 301.822 225.64 306.768 224.318 311.827 223.035 316.734 222.129 321.68 221.827 326.361L194.154 314.016C191.964 313.035 189.246 313.676 187.698 315.526 186.075 317.414 185.961 320.132 187.358 322.209L234.813 391.749 282.269 322.209C283.703 320.132 283.59 317.414 281.929 315.526 281.174 314.658 280.192 314.016 278.984 313.676 277.663 313.45 276.493 313.563 275.511 314.016L247.838 326.361C248.367 319.264 250.254 312.166 253.426 305.673 256.597 299.217 260.938 293.403 266.299 288.495 271.547 283.701 277.776 279.85 284.572 277.358 291.254 274.829 298.465 273.621 305.675 273.734 312.773 273.847 319.984 275.395 326.553 278.113 333.235 280.945 339.238 284.909 344.372 289.93 349.62 294.951 353.659 300.954 356.604 307.56 359.586 314.243 361.248 321.227 361.474 328.438L361.474 466.311 387.599 466.311 387.599 333.27Z" fill="#FEFEFE"/></g></svg>